<svg xmlns="http://www.w3.org/2000/svg" width="1280" height="181" fill="none" viewBox="0 0 1280 181"><path fill="#fff" d="M71.21 142.54C51.07 142.54 34.2233 135.763 20.67 122.21C7.24333 108.657 0.53 91.7467 0.53 71.48C0.53 51.2133 7.24333 34.3667 20.67 20.94C34.0967 7.25999 50.9433 0.41999 71.21 0.41999C91.73 0.41999 108.387 7.82999 121.18 22.65L108.64 34.81C98.8867 23.03 86.41 17.14 71.21 17.14C56.1367 17.14 43.5333 22.2067 33.4 32.34C23.3933 42.3467 18.39 55.3933 18.39 71.48C18.39 87.5667 23.3933 100.613 33.4 110.62C43.5333 120.753 56.1367 125.82 71.21 125.82C87.0433 125.82 100.787 119.17 112.44 105.87L125.17 118.22C118.71 125.947 110.793 131.963 101.42 136.27C92.0467 140.45 81.9767 142.54 71.21 142.54ZM133.527 92.95C133.527 78.6367 138.024 66.7933 147.017 57.42C156.137 48.0467 167.6 43.36 181.407 43.36C195.214 43.36 206.614 48.0467 215.607 57.42C224.727 66.7933 229.287 78.6367 229.287 92.95C229.287 107.39 224.727 119.233 215.607 128.48C206.614 137.853 195.214 142.54 181.407 142.54C167.6 142.54 156.137 137.853 147.017 128.48C138.024 119.107 133.527 107.263 133.527 92.95ZM151.007 92.95C151.007 102.957 153.92 111.063 159.747 117.27C165.574 123.477 172.794 126.58 181.407 126.58C190.02 126.58 197.24 123.477 203.067 117.27C208.894 111.063 211.807 102.957 211.807 92.95C211.807 83.07 208.894 75.0267 203.067 68.82C197.114 62.4867 189.894 59.32 181.407 59.32C172.92 59.32 165.7 62.4867 159.747 68.82C153.92 75.0267 151.007 83.07 151.007 92.95ZM261.718 3.46V139.5H244.238V3.46H261.718ZM300.497 3.46V139.5H283.017V3.46H300.497ZM333.599 111C333.599 115.56 335.499 119.36 339.299 122.4C343.225 125.44 347.785 126.96 352.979 126.96C360.325 126.96 366.849 124.237 372.549 118.79C378.375 113.343 381.289 106.947 381.289 99.6C375.842 95.2933 368.242 93.14 358.489 93.14C351.395 93.14 345.442 94.85 340.629 98.27C335.942 101.69 333.599 105.933 333.599 111ZM356.209 43.36C369.129 43.36 379.325 46.8433 386.799 53.81C394.272 60.65 398.009 70.0867 398.009 82.12V139.5H381.289V126.58H380.529C373.309 137.22 363.682 142.54 351.649 142.54C341.389 142.54 332.775 139.5 325.809 133.42C318.969 127.34 315.549 119.74 315.549 110.62C315.549 100.993 319.159 93.33 326.379 87.63C333.725 81.93 343.479 79.08 355.639 79.08C366.025 79.08 374.575 80.98 381.289 84.78V80.79C381.289 74.71 378.882 69.58 374.069 65.4C369.255 61.0933 363.619 58.94 357.159 58.94C347.405 58.94 339.679 63.0567 333.979 71.29L318.589 61.6C327.075 49.44 339.615 43.36 356.209 43.36ZM463.324 126.58C471.684 126.58 478.714 123.413 484.414 117.08C490.114 110.873 492.964 102.83 492.964 92.95C492.964 83.1967 490.114 75.1533 484.414 68.82C478.714 62.4867 471.684 59.32 463.324 59.32C454.837 59.32 447.744 62.4867 442.044 68.82C436.471 75.1533 433.684 83.1967 433.684 92.95C433.684 102.83 436.471 110.937 442.044 117.27C447.744 123.477 454.837 126.58 463.324 126.58ZM466.174 142.54C459.334 142.54 453.064 141.083 447.364 138.17C441.791 135.257 437.484 131.393 434.444 126.58H433.684L434.444 139.5V180.54H416.964V46.4H433.684V59.32H434.444C437.484 54.5067 441.791 50.6433 447.364 47.73C453.064 44.8167 459.334 43.36 466.174 43.36C478.461 43.36 488.847 48.1733 497.334 57.8C506.074 67.5533 510.444 79.27 510.444 92.95C510.444 106.757 506.074 118.473 497.334 128.1C488.847 137.727 478.461 142.54 466.174 142.54ZM596.777 113.66C596.777 121.767 593.23 128.607 586.137 134.18C579.043 139.753 570.113 142.54 559.347 142.54C549.973 142.54 541.74 140.133 534.647 135.32C527.553 130.38 522.487 123.92 519.447 115.94L535.027 109.29C537.307 114.863 540.6 119.233 544.907 122.4C549.34 125.44 554.153 126.96 559.347 126.96C564.92 126.96 569.543 125.757 573.217 123.35C577.017 120.943 578.917 118.093 578.917 114.8C578.917 108.847 574.357 104.477 565.237 101.69L549.277 97.7C531.163 93.14 522.107 84.4 522.107 71.48C522.107 62.9933 525.527 56.2167 532.367 51.15C539.333 45.9567 548.2 43.36 558.967 43.36C567.2 43.36 574.61 45.3233 581.197 49.25C587.91 53.1767 592.597 58.4333 595.257 65.02L579.677 71.48C577.903 67.5533 574.99 64.5133 570.937 62.36C567.01 60.08 562.577 58.94 557.637 58.94C553.077 58.94 548.96 60.08 545.287 62.36C541.74 64.64 539.967 67.4267 539.967 70.72C539.967 76.04 544.97 79.84 554.977 82.12L569.037 85.73C587.53 90.29 596.777 99.6 596.777 113.66ZM654.719 142.54C641.039 142.54 629.766 137.853 620.899 128.48C612.033 119.107 607.599 107.263 607.599 92.95C607.599 78.7633 611.906 66.9833 620.519 57.61C629.133 48.11 640.153 43.36 653.579 43.36C667.386 43.36 678.343 47.8567 686.449 56.85C694.683 65.7167 698.799 78.1933 698.799 94.28L698.609 96.18H625.459C625.713 105.3 628.753 112.647 634.579 118.22C640.406 123.793 647.373 126.58 655.479 126.58C666.626 126.58 675.366 121.007 681.699 109.86L697.279 117.46C693.099 125.313 687.273 131.457 679.799 135.89C672.453 140.323 664.093 142.54 654.719 142.54ZM626.789 81.74H680.179C679.673 75.28 677.013 69.96 672.199 65.78C667.513 61.4733 661.179 59.32 653.199 59.32C646.613 59.32 640.913 61.3467 636.099 65.4C631.413 69.4533 628.309 74.9 626.789 81.74ZM794.205 139.5H717.825V3.46H735.305V122.78H794.205V139.5ZM804.093 92.95C804.093 78.6367 808.59 66.7933 817.583 57.42C826.703 48.0467 838.167 43.36 851.973 43.36C865.78 43.36 877.18 48.0467 886.173 57.42C895.293 66.7933 899.853 78.6367 899.853 92.95C899.853 107.39 895.293 119.233 886.173 128.48C877.18 137.853 865.78 142.54 851.973 142.54C838.167 142.54 826.703 137.853 817.583 128.48C808.59 119.107 804.093 107.263 804.093 92.95ZM821.573 92.95C821.573 102.957 824.487 111.063 830.313 117.27C836.14 123.477 843.36 126.58 851.973 126.58C860.587 126.58 867.807 123.477 873.633 117.27C879.46 111.063 882.373 102.957 882.373 92.95C882.373 83.07 879.46 75.0267 873.633 68.82C867.68 62.4867 860.46 59.32 851.973 59.32C843.487 59.32 836.267 62.4867 830.313 68.82C824.487 75.0267 821.573 83.07 821.573 92.95ZM928.462 111C928.462 115.56 930.362 119.36 934.162 122.4C938.088 125.44 942.648 126.96 947.842 126.96C955.188 126.96 961.712 124.237 967.412 118.79C973.238 113.343 976.152 106.947 976.152 99.6C970.705 95.2933 963.105 93.14 953.352 93.14C946.258 93.14 940.305 94.85 935.492 98.27C930.805 101.69 928.462 105.933 928.462 111ZM951.072 43.36C963.992 43.36 974.188 46.8433 981.662 53.81C989.135 60.65 992.872 70.0867 992.872 82.12V139.5H976.152V126.58H975.392C968.172 137.22 958.545 142.54 946.512 142.54C936.252 142.54 927.638 139.5 920.672 133.42C913.832 127.34 910.412 119.74 910.412 110.62C910.412 100.993 914.022 93.33 921.242 87.63C928.588 81.93 938.342 79.08 950.502 79.08C960.888 79.08 969.438 80.98 976.152 84.78V80.79C976.152 74.71 973.745 69.58 968.932 65.4C964.118 61.0933 958.482 58.94 952.022 58.94C942.268 58.94 934.542 63.0567 928.842 71.29L913.452 61.6C921.938 49.44 934.478 43.36 951.072 43.36ZM1053.46 126.58C1062.07 126.58 1069.1 123.477 1074.55 117.27C1080.25 111.063 1083.1 102.957 1083.1 92.95C1083.1 83.1967 1080.25 75.1533 1074.55 68.82C1068.98 62.4867 1061.95 59.32 1053.46 59.32C1045.1 59.32 1038.07 62.4867 1032.37 68.82C1026.67 75.1533 1023.82 83.1967 1023.82 92.95C1023.82 102.83 1026.67 110.873 1032.37 117.08C1038.07 123.413 1045.1 126.58 1053.46 126.58ZM1050.61 142.54C1038.45 142.54 1028 137.727 1019.26 128.1C1010.65 118.347 1006.34 106.63 1006.34 92.95C1006.34 79.27 1010.65 67.5533 1019.26 57.8C1028 48.1733 1038.45 43.36 1050.61 43.36C1057.45 43.36 1063.66 44.8167 1069.23 47.73C1074.93 50.6433 1079.3 54.5067 1082.34 59.32H1083.1L1082.34 46.4V3.46H1099.82V139.5H1083.1V126.58H1082.34C1079.3 131.393 1074.93 135.257 1069.23 138.17C1063.66 141.083 1057.45 142.54 1050.61 142.54ZM1162 142.54C1148.32 142.54 1137.05 137.853 1128.18 128.48C1119.32 119.107 1114.88 107.263 1114.88 92.95C1114.88 78.7633 1119.19 66.9833 1127.8 57.61C1136.42 48.11 1147.44 43.36 1160.86 43.36C1174.67 43.36 1185.63 47.8567 1193.73 56.85C1201.97 65.7167 1206.08 78.1933 1206.08 94.28L1205.89 96.18H1132.74C1133 105.3 1136.04 112.647 1141.86 118.22C1147.69 123.793 1154.66 126.58 1162.76 126.58C1173.91 126.58 1182.65 121.007 1188.98 109.86L1204.56 117.46C1200.38 125.313 1194.56 131.457 1187.08 135.89C1179.74 140.323 1171.38 142.54 1162 142.54ZM1134.07 81.74H1187.46C1186.96 75.28 1184.3 69.96 1179.48 65.78C1174.8 61.4733 1168.46 59.32 1160.48 59.32C1153.9 59.32 1148.2 61.3467 1143.38 65.4C1138.7 69.4533 1135.59 74.9 1134.07 81.74ZM1239.55 139.5H1222.07V46.4H1238.79V61.6H1239.55C1241.32 56.66 1244.93 52.48 1250.38 49.06C1255.95 45.5133 1261.4 43.74 1266.72 43.74C1271.79 43.74 1276.09 44.5 1279.64 46.02L1274.32 62.93C1272.17 62.0433 1268.75 61.6 1264.06 61.6C1257.47 61.6 1251.71 64.26 1246.77 69.58C1241.96 74.9 1239.55 81.1067 1239.55 88.2V139.5Z"/></svg>